<svg width="56" height="56" viewBox="0 0 56 56" fill="none" xmlns="http://www.w3.org/2000/svg">
<path d="M25.3641 3.66406C24.8063 3.83906 23.975 4.51718 23.6359 5.06406C23.5156 5.26093 23.0891 6.60625 22.6844 8.03906C22.2797 9.48281 21.9406 10.675 21.9297 10.6969C21.9078 10.7187 19.075 11.2437 15.6297 11.8781C8.87032 13.1141 8.83751 13.1141 8.11563 13.9453C7.57969 14.5469 7.40469 14.9734 7.36094 15.8047C7.31719 16.45 7.68907 18.6703 9.84376 30.45C11.2875 38.4234 12.4578 44.5375 12.5672 44.7891C12.9828 45.7297 14 46.4516 15.0391 46.5609L15.6188 46.6266L15.6625 48.2234C15.7063 49.5469 15.75 49.9078 15.9359 50.3344C16.2641 51.0562 17.0734 51.8766 17.7516 52.1828L18.3203 52.4453H27.9453H37.5703L38.2594 52.0734C39.4844 51.4062 40.0313 50.4875 40.1188 48.9344L40.1734 47.9391L41.1031 47.7531C44.7016 47.0422 47.5891 44.2531 48.4531 40.6656C48.7266 39.5391 48.7484 37.7453 48.4969 36.5531C47.8844 33.5672 45.675 30.9094 42.875 29.7828C42.1641 29.4984 42.1094 29.4547 42.175 29.2031C42.2078 29.05 43.2906 25.1672 44.5813 20.5734C47.1297 11.4844 47.1625 11.3094 46.7141 10.325C46.4297 9.70156 45.7953 9.02343 45.2484 8.76093C44.4938 8.4 27.2563 3.59843 26.5234 3.54375C26.1188 3.52187 25.6703 3.56562 25.3641 3.66406ZM34.5844 7.50312C38.9922 8.73906 42.9734 9.84375 43.4219 9.975C43.8703 10.0953 44.3734 10.2703 44.5266 10.3578C44.9203 10.5875 45.1719 11.0578 45.1719 11.5609C45.1719 12.0859 40.4359 29.0172 40.2719 29.0719C40.1844 29.0937 40.1406 27.9016 40.1188 25.025C40.0859 21.0328 40.075 20.9344 39.8344 20.3984C39.5063 19.6875 38.7188 18.8891 38.0188 18.5719C37.5047 18.3422 37.2859 18.3203 34.9781 18.2875C33.6 18.2656 32.4844 18.2437 32.4844 18.2219C32.4844 18.0469 31.3688 12.1297 31.2703 11.8234C31.0625 11.1344 30.4172 10.3797 29.7391 10.0297C28.8313 9.55937 28.2516 9.55937 25.9219 9.99687C24.8063 10.2047 23.8875 10.3687 23.8766 10.3469C23.8219 10.2922 25.0688 6.05937 25.2 5.85156C25.3859 5.57812 25.9766 5.26093 26.3266 5.25C26.4578 5.25 30.1766 6.26718 34.5844 7.50312ZM28.9516 11.5937C29.1484 11.7031 29.3781 11.9109 29.4656 12.0531C29.5531 12.1953 29.8594 13.5625 30.1328 15.0937C30.4063 16.625 30.6578 17.9703 30.6906 18.0687C30.7453 18.2437 30.3406 18.2547 24.5328 18.2875L18.3203 18.3203L17.6969 18.6266C16.9531 18.9984 16.1766 19.8078 15.8922 20.5406C15.7063 21.0219 15.6953 21.7 15.6625 32.9437L15.6406 44.8437H15.3344C14.9078 44.8437 14.3391 44.4609 14.175 44.0453C13.9891 43.5969 9.07813 16.6031 9.07813 16.0453C9.07813 15.5422 9.32969 15.0828 9.73438 14.8422C9.89844 14.7437 13.5734 14.0219 18.55 13.125C23.2313 12.2719 27.2672 11.5391 27.5078 11.4844C28.2297 11.3422 28.5797 11.3641 28.9516 11.5937ZM37.4063 20.2562C37.7344 20.4203 37.9859 20.6609 38.1391 20.9453C38.3797 21.3719 38.3906 21.4484 38.3906 25.2219V29.0719L37.6578 29.2031C33.9719 29.8375 30.9531 32.6812 30.0781 36.3125C29.7828 37.5812 29.7828 39.4187 30.0781 40.6875C30.9531 44.3187 33.9719 47.1625 37.6688 47.7969L38.4125 47.9281L38.3688 48.7922C38.3359 49.7 38.1828 50.0172 37.5813 50.4656C37.2859 50.6953 37.1766 50.6953 28.0438 50.7281C19.0203 50.75 18.8016 50.75 18.3859 50.5312C18.1563 50.4219 17.8391 50.1375 17.7078 49.9078L17.4453 49.4922V35.3828V21.2734L17.6969 20.8687C17.8391 20.65 18.1453 20.3766 18.4078 20.2453C18.8672 20.0156 18.9547 20.0156 27.8906 20.0156H36.925L37.4063 20.2562ZM41.3875 31.1172C44.0781 31.8609 46.0469 33.9062 46.7031 36.6516C47.6984 40.7969 45.2484 44.8984 41.1688 45.9375C37.0891 46.9875 32.8672 44.4828 31.8281 40.4031C31.2484 38.1719 31.8281 35.4484 33.2391 33.6875C34.4313 32.2109 35.9406 31.3359 38.0625 30.9094C38.5875 30.8109 40.7531 30.9422 41.3875 31.1172Z" fill="#0F67B1"/>
<path d="M20.3109 22.8813C19.7531 23.3078 19.9391 24.1828 20.6391 24.3906C20.9344 24.4781 23.1875 24.5 28.1969 24.4781L35.35 24.4453L35.6125 24.1391C35.9297 23.7672 35.9516 23.4172 35.6453 23.0344L35.4266 22.75H27.9563C22.1594 22.75 20.4531 22.7828 20.3109 22.8813Z" fill="#0F67B1"/>
<path d="M20.2344 28.4375C19.9063 28.7656 19.9063 29.3453 20.2453 29.6953C20.4531 29.9031 20.6281 29.9141 25.8453 29.9469C28.7984 29.9578 31.3359 29.9469 31.4781 29.9141C32.1453 29.75 32.3859 28.9078 31.9047 28.4594C31.6531 28.2187 31.6531 28.2187 26.0531 28.2187C20.5953 28.2187 20.4422 28.2297 20.2344 28.4375Z" fill="#0F67B1"/>
<path d="M20.2344 33.9063C19.9063 34.2344 19.9063 34.8141 20.2453 35.1641C20.4422 35.3719 20.6281 35.3828 22.925 35.4156C25.6266 35.4484 25.8125 35.4156 26.0422 34.8141C26.1734 34.4641 25.9984 33.95 25.6922 33.7969C25.5828 33.7313 24.3797 33.6875 22.9797 33.6875C20.5953 33.6875 20.4422 33.6984 20.2344 33.9063Z" fill="#0F67B1"/>
<path d="M20.2344 39.4297C19.8844 39.8016 19.9063 40.3375 20.2891 40.6547C20.5625 40.8953 20.6391 40.9062 23.0344 40.9062H25.5063L25.8234 40.5891C25.9984 40.4141 26.1406 40.1844 26.1406 40.0859C26.1406 39.8234 25.8453 39.2984 25.6484 39.2219C25.55 39.1891 24.3469 39.1563 22.9797 39.1563H20.4859L20.2344 39.4297Z" fill="#0F67B1"/>
<path d="M20.2344 44.8984C19.8734 45.2813 19.8953 45.7844 20.2781 46.1234L20.5734 46.375H24.2922C28.0875 46.375 28.3172 46.3531 28.6234 45.9484C28.8422 45.6641 28.7875 45.1828 28.4922 44.8984L28.2297 44.625H24.3578H20.4859L20.2344 44.8984Z" fill="#0F67B1"/>
<path d="M38.9813 31.9375C38.5766 32.1016 38.3906 32.4844 38.3906 33.1625C38.3906 33.7641 38.3797 33.7969 38.0406 33.9719C36.2797 34.8578 35.9078 37.1219 37.275 38.4891C37.8109 39.025 38.5656 39.375 39.1672 39.375C40.2063 39.375 40.7531 40.5344 40.0422 41.2453C39.7906 41.4969 39.6266 41.5625 39.2656 41.5625C38.6969 41.5625 38.1719 41.1031 38.1719 40.6109C38.1719 39.6703 36.9578 39.2875 36.5313 40.0859C36.3563 40.4031 36.4328 41.1578 36.6844 41.6938C36.925 42.1859 37.5375 42.8094 38.0188 43.0391C38.3797 43.2031 38.3906 43.2359 38.3906 43.8594C38.3906 44.3734 38.4453 44.5594 38.6422 44.7781C39.0359 45.2266 39.4188 45.2484 39.8125 44.8656C40.1078 44.5703 40.1406 44.4609 40.1406 43.8703C40.1406 43.2359 40.1516 43.2031 40.5016 43.0281C41.7703 42.3828 42.3828 40.9281 41.9453 39.5828C41.5844 38.5109 40.3922 37.625 39.2875 37.625C39.0141 37.625 38.8172 37.5266 38.5438 37.2531C38.1281 36.8375 38.0734 36.4875 38.3359 35.9844C38.5438 35.5797 38.8063 35.4375 39.3203 35.4375C39.8344 35.4375 40.3594 35.9297 40.3594 36.4C40.3594 37.1 41.0703 37.5594 41.6719 37.2422C42.6453 36.7391 41.9016 34.6172 40.5125 33.9609C40.1516 33.7969 40.1406 33.7641 40.1406 33.1406C40.1406 32.6266 40.0859 32.4406 39.9 32.2219C39.6047 31.9047 39.2984 31.8063 38.9813 31.9375Z" fill="#0F67B1"/>
</svg>
