<svg width="855" height="168" viewBox="0 0 855 168" fill="none" xmlns="http://www.w3.org/2000/svg">
<path d="M50.7281 35.3281C49.6125 35.6781 47.95 37.0344 47.2719 38.1281C47.0312 38.5219 46.1781 41.2125 45.3687 44.0781C44.5594 46.9656 43.8812 49.35 43.8594 49.3937C43.8156 49.4375 38.15 50.4875 31.2594 51.7562C17.7406 54.2281 17.675 54.2281 16.2312 55.8906C15.1594 57.0937 14.8094 57.9469 14.7219 59.6094C14.6344 60.9 15.3781 65.3406 19.6875 88.9C22.575 104.847 24.9156 117.075 25.1344 117.578C25.9656 119.459 28 120.903 30.0781 121.122L31.2375 121.253L31.325 124.447C31.4125 127.094 31.5 127.816 31.8719 128.669C32.5281 130.112 34.1469 131.753 35.5031 132.366L36.6406 132.891H55.8906H75.1406L76.5187 132.147C78.9687 130.812 80.0625 128.975 80.2375 125.869L80.3469 123.878L82.2062 123.506C89.4031 122.084 95.1781 116.506 96.9062 109.331C97.4531 107.078 97.4969 103.491 96.9937 101.106C95.7687 95.1344 91.35 89.8187 85.75 87.5656C84.3281 86.9969 84.2187 86.9094 84.35 86.4062C84.4156 86.1 86.5812 78.3344 89.1625 69.1469C94.2594 50.9687 94.325 50.6187 93.4281 48.65C92.8594 47.4031 91.5906 46.0469 90.4969 45.5219C88.9875 44.8 54.5125 35.1969 53.0469 35.0875C52.2375 35.0437 51.3406 35.1312 50.7281 35.3281ZM69.1687 43.0062C77.9844 45.4781 85.9469 47.6875 86.8437 47.95C87.7406 48.1906 88.7469 48.5406 89.0531 48.7156C89.8406 49.175 90.3437 50.1156 90.3437 51.1219C90.3437 52.1719 80.8719 86.0344 80.5437 86.1437C80.3687 86.1875 80.2812 83.8031 80.2375 78.05C80.1719 70.0656 80.15 69.8687 79.6687 68.7969C79.0125 67.375 77.4375 65.7781 76.0375 65.1437C75.0094 64.6844 74.5719 64.6406 69.9562 64.575C67.2 64.5312 64.9687 64.4875 64.9687 64.4437C64.9687 64.0937 62.7375 52.2594 62.5406 51.6469C62.125 50.2687 60.8344 48.7594 59.4781 48.0594C57.6625 47.1187 56.5031 47.1187 51.8437 47.9937C49.6125 48.4094 47.775 48.7375 47.7531 48.6937C47.6437 48.5844 50.1375 40.1187 50.4 39.7031C50.7719 39.1562 51.9531 38.5219 52.6531 38.5C52.9156 38.5 60.3531 40.5344 69.1687 43.0062ZM57.9031 51.1875C58.2969 51.4062 58.7562 51.8219 58.9312 52.1062C59.1062 52.3906 59.7187 55.125 60.2656 58.1875C60.8125 61.25 61.3156 63.9406 61.3812 64.1375C61.4906 64.4875 60.6812 64.5094 49.0656 64.575L36.6406 64.6406L35.3937 65.2531C33.9062 65.9969 32.3531 67.6156 31.7844 69.0812C31.4125 70.0437 31.3906 71.4 31.325 93.8875L31.2812 117.687H30.6687C29.8156 117.687 28.6781 116.922 28.35 116.091C27.9781 115.194 18.1562 61.2062 18.1562 60.0906C18.1562 59.0844 18.6594 58.1656 19.4687 57.6844C19.7969 57.4875 27.1469 56.0437 37.1 54.25C46.4625 52.5437 54.5344 51.0781 55.0156 50.9687C56.4594 50.6844 57.1594 50.7281 57.9031 51.1875ZM74.8125 68.5125C75.4687 68.8406 75.9719 69.3219 76.2781 69.8906C76.7594 70.7437 76.7812 70.8969 76.7812 78.4437V86.1437L75.3156 86.4062C67.9437 87.675 61.9062 93.3625 60.1562 100.625C59.5656 103.162 59.5656 106.837 60.1562 109.375C61.9062 116.637 67.9437 122.325 75.3375 123.594L76.825 123.856L76.7375 125.584C76.6719 127.4 76.3656 128.034 75.1625 128.931C74.5719 129.391 74.3531 129.391 56.0875 129.456C38.0406 129.5 37.6031 129.5 36.7719 129.062C36.3125 128.844 35.6781 128.275 35.4156 127.816L34.8906 126.984V98.7656V70.5469L35.3937 69.7375C35.6781 69.3 36.2906 68.7531 36.8156 68.4906C37.7344 68.0312 37.9094 68.0312 55.7812 68.0312H73.85L74.8125 68.5125ZM82.775 90.2344C88.1562 91.7219 92.0937 95.8125 93.4062 101.303C95.3969 109.594 90.4969 117.797 82.3375 119.875C74.1781 121.975 65.7344 116.966 63.6562 108.806C62.4969 104.344 63.6562 98.8969 66.4781 95.375C68.8625 92.4219 71.8812 90.6719 76.125 89.8187C77.175 89.6219 81.5062 89.8844 82.775 90.2344Z" fill="#0F67B1"/>
<path d="M40.6219 73.7625C39.5062 74.6156 39.8781 76.3656 41.2781 76.7813C41.8687 76.9563 46.375 77 56.3937 76.9563L70.7 76.8906L71.225 76.2781C71.8594 75.5344 71.9031 74.8344 71.2906 74.0688L70.8531 73.5H55.9125C44.3187 73.5 40.9062 73.5656 40.6219 73.7625Z" fill="#0F67B1"/>
<path d="M40.4688 84.875C39.8125 85.5313 39.8125 86.6906 40.4906 87.3906C40.9063 87.8063 41.2562 87.8281 51.6906 87.8938C57.5969 87.9156 62.6719 87.8938 62.9563 87.8281C64.2906 87.5 64.7719 85.8156 63.8094 84.9188C63.3063 84.4375 63.3062 84.4375 52.1062 84.4375C41.1906 84.4375 40.8844 84.4594 40.4688 84.875Z" fill="#0F67B1"/>
<path d="M40.4688 95.8125C39.8125 96.4688 39.8125 97.6281 40.4906 98.3281C40.8844 98.7438 41.2562 98.7656 45.85 98.8313C51.2531 98.8969 51.625 98.8313 52.0844 97.6281C52.3469 96.9281 51.9969 95.9 51.3844 95.5938C51.1656 95.4625 48.7594 95.375 45.9594 95.375C41.1906 95.375 40.8844 95.3969 40.4688 95.8125Z" fill="#0F67B1"/>
<path d="M40.4687 106.859C39.7687 107.603 39.8125 108.675 40.5781 109.309C41.125 109.791 41.2781 109.812 46.0687 109.812H51.0125L51.6469 109.178C51.9969 108.828 52.2812 108.369 52.2812 108.172C52.2812 107.647 51.6906 106.597 51.2969 106.444C51.1 106.378 48.6937 106.313 45.9594 106.313H40.9719L40.4687 106.859Z" fill="#0F67B1"/>
<path d="M40.4687 117.797C39.7469 118.563 39.7906 119.569 40.5562 120.247L41.1469 120.75H48.5844C56.175 120.75 56.6344 120.706 57.2469 119.897C57.6844 119.328 57.575 118.366 56.9844 117.797L56.4594 117.25H48.7156H40.9719L40.4687 117.797Z" fill="#0F67B1"/>
<path d="M77.9625 91.875C77.1531 92.2031 76.7812 92.9688 76.7812 94.325C76.7812 95.5281 76.7594 95.5938 76.0812 95.9438C72.5594 97.7156 71.8156 102.244 74.55 104.978C75.6219 106.05 77.1312 106.75 78.3344 106.75C80.4125 106.75 81.5062 109.069 80.0844 110.491C79.5812 110.994 79.2531 111.125 78.5312 111.125C77.3937 111.125 76.3437 110.206 76.3437 109.222C76.3437 107.341 73.9156 106.575 73.0625 108.172C72.7125 108.806 72.8656 110.316 73.3687 111.388C73.85 112.372 75.075 113.619 76.0375 114.078C76.7594 114.406 76.7812 114.472 76.7812 115.719C76.7812 116.747 76.8906 117.119 77.2844 117.556C78.0719 118.453 78.8375 118.497 79.625 117.731C80.2156 117.141 80.2812 116.922 80.2812 115.741C80.2812 114.472 80.3031 114.406 81.0031 114.056C83.5406 112.766 84.7656 109.856 83.8906 107.166C83.1687 105.022 80.7844 103.25 78.575 103.25C78.0281 103.25 77.6344 103.053 77.0875 102.506C76.2562 101.675 76.1469 100.975 76.6719 99.9688C77.0875 99.1594 77.6125 98.875 78.6406 98.875C79.6687 98.875 80.7187 99.8594 80.7187 100.8C80.7187 102.2 82.1406 103.119 83.3437 102.484C85.2906 101.478 83.8031 97.2344 81.025 95.9219C80.3031 95.5938 80.2812 95.5281 80.2812 94.2813C80.2812 93.2531 80.1719 92.8813 79.8 92.4438C79.2094 91.8094 78.5969 91.6125 77.9625 91.875Z" fill="#0F67B1"/>
<path d="M122.76 130V46H166.56V60.4H139.2V81.4H162.96V95.32H139.2V130H122.76ZM172.902 130V68.68H188.742V130H172.902ZM172.902 46H188.742V62.2H172.902V46ZM225.675 68.68H238.395C241.915 73.16 244.315 77.64 245.595 82.12C246.875 86.6 247.515 92.2 247.515 98.92V130H231.555V97.72C231.555 90.12 230.515 84.64 228.435 81.28H214.995V130H199.035V68.68H211.515L213.675 73C215.435 71.4 217.075 70.28 218.595 69.64C220.195 69 222.555 68.68 225.675 68.68ZM286.314 102.28H273.474C271.794 104.36 270.954 106.96 270.954 110.08C270.954 113.2 271.834 115.64 273.594 117.4H286.314V102.28ZM260.514 68.68H290.274C295.074 71.56 298.234 74.88 299.754 78.64C301.274 82.32 302.034 87.36 302.034 93.76V111.76C302.034 118.4 302.194 124.48 302.514 130H288.834L286.674 125.68C283.554 128.56 279.154 130 273.474 130H265.914C259.114 125.52 255.714 119.08 255.714 110.68C255.714 102.2 259.194 95.52 266.154 90.64H277.434C280.554 90.64 283.474 91.6 286.194 93.52V87.52C286.194 84.4 284.834 82.32 282.114 81.28H260.514V68.68ZM338.995 68.68H351.715C355.235 73.16 357.635 77.64 358.915 82.12C360.195 86.6 360.835 92.2 360.835 98.92V130H344.875V97.72C344.875 90.12 343.835 84.64 341.755 81.28H328.315V130H312.355V68.68H324.835L326.995 73C328.755 71.4 330.395 70.28 331.915 69.64C333.515 69 335.875 68.68 338.995 68.68ZM385.595 98.8C385.595 102.16 386.115 105.6 387.155 109.12C388.195 112.56 389.635 115.32 391.475 117.4H409.475V130H383.195C373.755 122.48 369.035 112.08 369.035 98.8C369.035 85.52 374.075 75.48 384.155 68.68H409.475V81.28H391.475C387.555 85.36 385.595 91.2 385.595 98.8ZM417.473 130V68.68H433.313V130H417.473ZM417.473 46H433.313V62.2H417.473V46ZM472.525 102.28H459.685C458.005 104.36 457.165 106.96 457.165 110.08C457.165 113.2 458.045 115.64 459.805 117.4H472.525V102.28ZM446.725 68.68H476.485C481.285 71.56 484.445 74.88 485.965 78.64C487.485 82.32 488.245 87.36 488.245 93.76V111.76C488.245 118.4 488.405 124.48 488.725 130H475.045L472.885 125.68C469.765 128.56 465.365 130 459.685 130H452.125C445.325 125.52 441.925 119.08 441.925 110.68C441.925 102.2 445.405 95.52 452.365 90.64H463.645C466.765 90.64 469.685 91.6 472.405 93.52V87.52C472.405 84.4 471.045 82.32 468.325 81.28H446.725V68.68ZM514.406 46V130H498.566V46H514.406ZM552.198 46H580.998V60.4H557.958L557.598 61.12L576.798 96.16C580.718 103.2 582.678 108.56 582.678 112.24C582.678 120.32 579.998 126.24 574.638 130H542.838V116.08H567.678L568.038 115.36L546.438 76.6C543.318 71 541.758 66.44 541.758 62.92C541.758 54.6 545.238 48.96 552.198 46ZM589.144 96.28V68.68H605.104V96.4C605.104 103.36 606.504 109.16 609.304 113.8H616.384C619.024 109.24 620.344 103.44 620.344 96.4V68.68H636.304V95.44C636.304 101.44 635.504 106.72 633.904 111.28C632.384 115.84 629.864 121 626.344 126.76L618.304 139.84C616.864 142.32 615.344 144.16 613.744 145.36C612.144 146.56 610.064 147.44 607.504 148H588.544V135.4H601.504C603.184 134.92 604.584 134.08 605.704 132.88C606.824 131.68 607.984 129.96 609.184 127.72L609.904 126.4H601.624C597.784 123.28 594.744 119.08 592.504 113.8C590.264 108.44 589.144 102.6 589.144 96.28ZM650.465 68.68H676.985V81.28H658.265L669.665 98.2C674.785 105.48 677.625 110.48 678.185 113.2C678.505 114.48 678.665 115.8 678.665 117.16C678.665 122.84 676.545 127.12 672.305 130H641.705V117.4H663.665L650.825 98.56C650.265 97.68 649.385 96.44 648.185 94.84C647.065 93.24 646.185 91.96 645.545 91C644.905 89.96 644.465 89.2 644.225 88.72C643.985 88.24 643.665 87.64 643.265 86.92C642.865 86.12 642.585 85.44 642.425 84.88C642.105 83.36 641.945 82.12 641.945 81.16C641.945 75.32 644.785 71.16 650.465 68.68ZM690.018 103.24V81.28H681.738V68.68H690.018V52H705.978V68.68H715.818V81.28H705.978V107.08C705.978 111.96 706.818 115.4 708.498 117.4H715.818V130H698.778C694.538 126.08 691.978 121.84 691.098 117.28C690.378 113.44 690.018 108.76 690.018 103.24ZM750.349 81.28H741.349C740.149 82.72 739.149 84.72 738.349 87.28C737.629 89.84 737.269 92.32 737.269 94.72H754.429C754.589 92.32 754.269 89.84 753.469 87.28C752.669 84.64 751.629 82.64 750.349 81.28ZM766.669 117.4V130H736.189C730.589 126.24 726.629 121.6 724.309 116.08C722.069 110.48 720.949 104.84 720.949 99.16C720.949 86.04 725.909 75.88 735.829 68.68H755.269C760.629 72.6 764.269 76.76 766.189 81.16C768.109 85.56 769.069 90 769.069 94.48C769.069 98.96 768.709 102.8 767.989 106H738.109C738.349 107.84 739.029 109.96 740.149 112.36C741.349 114.68 742.629 116.36 743.989 117.4H766.669ZM803.761 68.68H812.281L815.281 72.88C816.961 71.36 818.561 70.28 820.081 69.64C821.681 69 824.041 68.68 827.161 68.68H840.481C844.001 73.16 846.401 77.64 847.681 82.12C848.961 86.6 849.601 92.2 849.601 98.92V130H833.641V97.72C833.641 90.36 832.521 84.88 830.281 81.28H818.761C820.521 84.72 821.401 89.4 821.401 95.32V130H805.441V97.72C805.441 90.12 804.401 84.64 802.321 81.28H793.081V130H777.121V68.68H789.601L791.761 73C793.521 71.4 795.161 70.28 796.681 69.64C798.281 69 800.641 68.68 803.761 68.68Z" fill="black"/>
</svg>
