<svg width="287" height="74" viewBox="0 0 287 74" fill="none" xmlns="http://www.w3.org/2000/svg">
<path d="M2.52142 7.5228C1.89106 7.85456 1.06165 8.55127 0.696708 9.04892C0 9.97786 0 10.2433 0 33.6659C0 57.0886 0 57.354 0.696708 58.283C2.25601 60.4394 1.72518 60.3731 22.2947 60.3731H40.9399L42.3333 62.6954C44.4566 66.2785 46.2813 67.4065 49.0018 66.8757C51.2246 66.4444 53.2484 63.9893 53.2484 61.7997C53.2484 60.6385 39.0156 18.8028 37.7881 16.3809C35.9302 12.7315 32.4135 9.6461 28.1669 8.02045C25.8777 7.15785 25.8777 7.15785 14.7636 7.02515C4.61154 6.95879 3.54989 6.99197 2.52142 7.5228ZM25.546 11.4045C28.0674 12.068 29.9584 13.1628 31.8495 15.0539C37.3236 20.528 37.1909 29.0212 31.5509 34.5617C27.8683 38.2111 27.9015 38.4102 33.5415 47.965C36.0298 52.1453 38.1199 55.7615 38.2194 55.9938C38.3521 56.3255 34.9018 56.3919 21.1998 56.3255L3.98119 56.226L3.88166 33.9977C3.84848 21.7555 3.88166 11.5703 3.98119 11.3381C4.21342 10.7409 23.2236 10.7741 25.546 11.4045ZM44.2907 46.9034C49.6322 62.4964 49.6985 62.8613 47.907 62.8613C47.2103 62.8613 46.2481 61.4347 40.7408 52.2448C37.2241 46.4057 34.0392 40.998 33.6079 40.2349L32.878 38.8747L34.7359 36.9836C35.7643 35.9551 37.0914 34.1968 37.6554 33.1019C38.4185 31.7085 38.8166 31.244 38.9825 31.5426C39.1152 31.808 41.5039 38.7088 44.2907 46.9034Z" fill="#0A1C5F"/>
<path d="M81.53 47.54C81.53 48.62 81.66 49.63 81.92 50.57C82.18 51.49 82.61 52.2 83.21 52.7C83.03 53.36 82.69 54.06 82.19 54.8C81.71 55.54 81.2 56.09 80.66 56.45C78.42 56.21 76.76 55.29 75.68 53.69C74.6 52.07 74.06 50.19 74.06 48.05V26.24C75.12 26.06 76.36 25.97 77.78 25.97C79.16 25.97 80.41 26.06 81.53 26.24V47.54ZM57.02 33.05C57.02 31.95 56.93 30.92 56.75 29.96C56.59 28.98 56.29 28.13 55.85 27.41C56.39 26.95 57.07 26.57 57.89 26.27C58.71 25.97 59.59 25.82 60.53 25.82C61.99 25.82 63.01 26.22 63.59 27.02C64.19 27.82 64.49 28.98 64.49 30.5V44.78C64.49 46.52 64.71 47.8 65.15 48.62C65.61 49.42 66.48 49.82 67.76 49.82C68.62 49.82 69.56 49.61 70.58 49.19C71.6 48.77 72.59 48.14 73.55 47.3C74.51 46.46 75.3 45.44 75.92 44.24V51.08C74.56 52.54 72.96 53.82 71.12 54.92C69.3 56 67.31 56.54 65.15 56.54C63.31 56.54 61.79 56.1 60.59 55.22C59.39 54.32 58.49 53.1 57.89 51.56C57.31 50.02 57.02 48.29 57.02 46.37V33.05ZM83.9511 47.87C83.9511 45.55 84.4811 43.64 85.5411 42.14C86.6011 40.64 88.0111 39.54 89.7711 38.84C91.5311 38.12 93.4711 37.76 95.5911 37.76C96.6311 37.76 97.8511 37.8 99.2511 37.88C100.651 37.94 101.931 38.1 103.091 38.36V43.22C102.091 43 100.951 42.86 99.6711 42.8C98.3911 42.74 97.2411 42.71 96.2211 42.71C94.6011 42.71 93.3711 43.13 92.5311 43.97C91.7111 44.81 91.3011 45.94 91.3011 47.36C91.3011 48.42 91.6011 49.32 92.2011 50.06C92.8211 50.78 93.6911 51.14 94.8111 51.14C96.1711 51.14 97.5911 50.66 99.0711 49.7C100.551 48.74 101.791 47.36 102.791 45.56L103.901 50.81C103.141 51.69 102.241 52.59 101.201 53.51C100.181 54.43 98.9811 55.21 97.6011 55.85C96.2411 56.49 94.6811 56.81 92.9211 56.81C90.9011 56.81 89.2211 56.37 87.8811 55.49C86.5611 54.59 85.5711 53.46 84.9111 52.1C84.2711 50.72 83.9511 49.31 83.9511 47.87ZM109.871 52.61C109.691 53.29 109.351 54.01 108.851 54.77C108.371 55.53 107.861 56.09 107.321 56.45C105.861 56.29 104.671 55.85 103.751 55.13C102.831 54.41 102.131 53.55 101.651 52.55C101.191 51.53 100.901 50.49 100.781 49.43V36.2C100.781 34.54 100.391 33.34 99.6111 32.6C98.8511 31.86 97.7311 31.49 96.2511 31.49C94.8311 31.49 93.3311 31.71 91.7511 32.15C90.1911 32.57 88.6311 33.06 87.0711 33.62C86.5111 33.02 86.0511 32.22 85.6911 31.22C85.3511 30.2 85.1411 29.23 85.0611 28.31C86.2811 27.79 87.6411 27.33 89.1411 26.93C90.6411 26.51 92.1611 26.18 93.7011 25.94C95.2611 25.7 96.7011 25.58 98.0211 25.58C99.9011 25.58 101.611 25.93 103.151 26.63C104.691 27.33 105.911 28.42 106.811 29.9C107.731 31.38 108.191 33.32 108.191 35.72V47.96C108.191 49 108.301 49.9 108.521 50.66C108.761 51.42 109.211 52.07 109.871 52.61ZM115.527 25.91C117.007 25.91 118.077 26.39 118.737 27.35C119.417 28.31 119.757 29.62 119.757 31.28V56C118.697 56.18 117.467 56.27 116.067 56.27C114.667 56.27 113.407 56.18 112.287 56V26.33L112.707 25.91H115.527ZM136.797 49.19C136.797 50.29 136.887 51.33 137.067 52.31C137.247 53.27 137.557 54.11 137.997 54.83C137.437 55.29 136.747 55.67 135.927 55.97C135.107 56.27 134.237 56.42 133.317 56.42C131.837 56.42 130.797 56.02 130.197 55.22C129.617 54.42 129.327 53.27 129.327 51.77V37.46C129.327 35.72 129.097 34.45 128.637 33.65C128.197 32.83 127.337 32.42 126.057 32.42C125.217 32.42 124.277 32.63 123.237 33.05C122.217 33.47 121.237 34.1 120.297 34.94C119.357 35.76 118.567 36.79 117.927 38.03V31.19C119.287 29.71 120.877 28.43 122.697 27.35C124.537 26.25 126.527 25.7 128.667 25.7C130.527 25.7 132.057 26.15 133.257 27.05C134.457 27.93 135.347 29.14 135.927 30.68C136.507 32.2 136.797 33.93 136.797 35.87V49.19ZM166.011 29.63C165.411 30.11 164.981 30.82 164.721 31.76C164.461 32.68 164.331 33.69 164.331 34.79V51.77C164.331 54.27 164.211 56.36 163.971 58.04C163.751 59.72 163.421 61.11 162.981 62.21C162.541 63.33 162.011 64.29 161.391 65.09C160.331 66.39 158.901 67.4 157.101 68.12C155.301 68.86 153.241 69.23 150.921 69.23C149.061 69.23 147.171 69.04 145.251 68.66C143.331 68.28 141.641 67.8 140.181 67.22C140.201 66.32 140.381 65.33 140.721 64.25C141.081 63.19 141.531 62.35 142.071 61.73C143.351 62.31 144.721 62.76 146.181 63.08C147.641 63.42 148.991 63.59 150.231 63.59C152.031 63.59 153.421 63.26 154.401 62.6C155.401 61.94 156.091 61.05 156.471 59.93C156.871 58.81 157.071 57.55 157.071 56.15V34.16C157.071 32 157.581 30.13 158.601 28.55C159.621 26.97 161.241 26.05 163.461 25.79C164.001 26.15 164.531 26.71 165.051 27.47C165.571 28.23 165.891 28.95 166.011 29.63ZM138.951 41.18C138.951 37.68 139.511 34.76 140.631 32.42C141.751 30.08 143.201 28.33 144.981 27.17C146.761 26.01 148.651 25.43 150.651 25.43C152.491 25.43 154.061 25.72 155.361 26.3C156.681 26.86 157.801 27.57 158.721 28.43C159.641 29.27 160.401 30.12 161.001 30.98L159.891 37.19C158.791 35.35 157.511 33.89 156.051 32.81C154.611 31.73 153.221 31.19 151.881 31.19C150.801 31.19 149.861 31.57 149.061 32.33C148.261 33.07 147.641 34.19 147.201 35.69C146.781 37.17 146.571 39.01 146.571 41.21C146.571 44.47 147.021 46.83 147.921 48.29C148.841 49.73 149.951 50.45 151.251 50.45C152.691 50.45 154.081 49.97 155.421 49.01C156.761 48.05 157.831 46.76 158.631 45.14L159.741 50.63C159.141 51.63 158.331 52.58 157.311 53.48C156.291 54.36 155.121 55.09 153.801 55.67C152.481 56.25 151.061 56.54 149.541 56.54C147.181 56.54 145.211 55.9 143.631 54.62C142.071 53.32 140.901 51.52 140.121 49.22C139.341 46.9 138.951 44.22 138.951 41.18ZM178.76 14.96C181.04 14.9 183.26 14.85 185.42 14.81C187.6 14.77 189.72 14.75 191.78 14.75C194.66 14.75 197.1 15.16 199.1 15.98C201.12 16.8 202.65 18.02 203.69 19.64C204.73 21.26 205.25 23.25 205.25 25.61C205.25 27.11 204.91 28.51 204.23 29.81C203.57 31.09 202.66 32.15 201.5 32.99C200.34 33.83 199.03 34.33 197.57 34.49V33.59C199.23 33.65 200.79 34.17 202.25 35.15C203.71 36.13 204.9 37.43 205.82 39.05C206.74 40.65 207.2 42.44 207.2 44.42C207.2 46.86 206.65 48.97 205.55 50.75C204.47 52.51 202.84 53.87 200.66 54.83C198.5 55.79 195.81 56.27 192.59 56.27C190.23 56.27 187.93 56.24 185.69 56.18C183.45 56.14 181.14 56.1 178.76 56.06L178.37 55.67V15.35L178.76 14.96ZM185.93 50.75C187.07 50.71 188.19 50.69 189.29 50.69C190.39 50.69 191.4 50.69 192.32 50.69C193.8 50.69 195 50.48 195.92 50.06C196.86 49.64 197.58 49.1 198.08 48.44C198.58 47.76 198.93 47.04 199.13 46.28C199.33 45.5 199.43 44.75 199.43 44.03C199.43 43.07 199.22 42.08 198.8 41.06C198.38 40.02 197.64 39.14 196.58 38.42C195.52 37.7 194.02 37.34 192.08 37.34H182.96V31.64H191.42C193.1 31.64 194.39 31.36 195.29 30.8C196.19 30.22 196.81 29.49 197.15 28.61C197.49 27.73 197.66 26.85 197.66 25.97C197.66 25.07 197.49 24.2 197.15 23.36C196.83 22.5 196.22 21.79 195.32 21.23C194.44 20.67 193.17 20.39 191.51 20.39C190.79 20.39 189.9 20.39 188.84 20.39C187.78 20.37 186.81 20.35 185.93 20.33V50.75ZM207.912 47.87C207.912 45.55 208.442 43.64 209.502 42.14C210.562 40.64 211.972 39.54 213.732 38.84C215.492 38.12 217.432 37.76 219.552 37.76C220.592 37.76 221.812 37.8 223.212 37.88C224.612 37.94 225.892 38.1 227.052 38.36V43.22C226.052 43 224.912 42.86 223.632 42.8C222.352 42.74 221.202 42.71 220.182 42.71C218.562 42.71 217.332 43.13 216.492 43.97C215.672 44.81 215.262 45.94 215.262 47.36C215.262 48.42 215.562 49.32 216.162 50.06C216.782 50.78 217.652 51.14 218.772 51.14C220.132 51.14 221.552 50.66 223.032 49.7C224.512 48.74 225.752 47.36 226.752 45.56L227.862 50.81C227.102 51.69 226.202 52.59 225.162 53.51C224.142 54.43 222.942 55.21 221.562 55.85C220.202 56.49 218.642 56.81 216.882 56.81C214.862 56.81 213.182 56.37 211.842 55.49C210.522 54.59 209.532 53.46 208.872 52.1C208.232 50.72 207.912 49.31 207.912 47.87ZM233.832 52.61C233.652 53.29 233.312 54.01 232.812 54.77C232.332 55.53 231.822 56.09 231.282 56.45C229.822 56.29 228.632 55.85 227.712 55.13C226.792 54.41 226.092 53.55 225.612 52.55C225.152 51.53 224.862 50.49 224.742 49.43V36.2C224.742 34.54 224.352 33.34 223.572 32.6C222.812 31.86 221.692 31.49 220.212 31.49C218.792 31.49 217.292 31.71 215.712 32.15C214.152 32.57 212.592 33.06 211.032 33.62C210.472 33.02 210.012 32.22 209.652 31.22C209.312 30.2 209.102 29.23 209.022 28.31C210.242 27.79 211.602 27.33 213.102 26.93C214.602 26.51 216.122 26.18 217.662 25.94C219.222 25.7 220.662 25.58 221.982 25.58C223.862 25.58 225.572 25.93 227.112 26.63C228.652 27.33 229.872 28.42 230.772 29.9C231.692 31.38 232.152 33.32 232.152 35.72V47.96C232.152 49 232.262 49.9 232.482 50.66C232.722 51.42 233.172 52.07 233.832 52.61ZM251.375 38.42C251.415 37.02 251.315 35.77 251.075 34.67C250.855 33.55 250.405 32.67 249.725 32.03C249.065 31.39 248.085 31.07 246.785 31.07C245.085 31.07 243.805 31.91 242.945 33.59C242.105 35.25 241.685 37.81 241.685 41.27C241.685 44.69 242.215 47.15 243.275 48.65C244.355 50.13 245.885 50.87 247.865 50.87C249.145 50.87 250.375 50.58 251.555 50C252.755 49.42 253.855 48.76 254.855 48.02C255.495 48.4 256.105 49.02 256.685 49.88C257.285 50.74 257.665 51.56 257.825 52.34C256.505 53.68 254.855 54.76 252.875 55.58C250.915 56.4 248.855 56.81 246.695 56.81C244.535 56.81 242.655 56.42 241.055 55.64C239.475 54.86 238.165 53.77 237.125 52.37C236.085 50.95 235.305 49.3 234.785 47.42C234.285 45.52 234.035 43.47 234.035 41.27C234.035 37.49 234.665 34.44 235.925 32.12C237.185 29.8 238.795 28.11 240.755 27.05C242.735 25.97 244.795 25.43 246.935 25.43C248.715 25.43 250.295 25.69 251.675 26.21C253.075 26.73 254.255 27.43 255.215 28.31C256.175 29.19 256.895 30.2 257.375 31.34C257.875 32.46 258.125 33.63 258.125 34.85C258.125 36.09 257.805 37.05 257.165 37.73C256.525 38.39 255.605 38.72 254.405 38.72C253.805 38.72 253.265 38.7 252.785 38.66C252.325 38.6 251.855 38.52 251.375 38.42ZM258.164 47.87C258.164 45.55 258.694 43.64 259.754 42.14C260.814 40.64 262.224 39.54 263.984 38.84C265.744 38.12 267.684 37.76 269.804 37.76C270.844 37.76 272.064 37.8 273.464 37.88C274.864 37.94 276.144 38.1 277.304 38.36V43.22C276.304 43 275.164 42.86 273.884 42.8C272.604 42.74 271.454 42.71 270.434 42.71C268.814 42.71 267.584 43.13 266.744 43.97C265.924 44.81 265.514 45.94 265.514 47.36C265.514 48.42 265.814 49.32 266.414 50.06C267.034 50.78 267.904 51.14 269.024 51.14C270.384 51.14 271.804 50.66 273.284 49.7C274.764 48.74 276.004 47.36 277.004 45.56L278.114 50.81C277.354 51.69 276.454 52.59 275.414 53.51C274.394 54.43 273.194 55.21 271.814 55.85C270.454 56.49 268.894 56.81 267.134 56.81C265.114 56.81 263.434 56.37 262.094 55.49C260.774 54.59 259.784 53.46 259.124 52.1C258.484 50.72 258.164 49.31 258.164 47.87ZM284.084 52.61C283.904 53.29 283.564 54.01 283.064 54.77C282.584 55.53 282.074 56.09 281.534 56.45C280.074 56.29 278.884 55.85 277.964 55.13C277.044 54.41 276.344 53.55 275.864 52.55C275.404 51.53 275.114 50.49 274.994 49.43V36.2C274.994 34.54 274.604 33.34 273.824 32.6C273.064 31.86 271.944 31.49 270.464 31.49C269.044 31.49 267.544 31.71 265.964 32.15C264.404 32.57 262.844 33.06 261.284 33.62C260.724 33.02 260.264 32.22 259.904 31.22C259.564 30.2 259.354 29.23 259.274 28.31C260.494 27.79 261.854 27.33 263.354 26.93C264.854 26.51 266.374 26.18 267.914 25.94C269.474 25.7 270.914 25.58 272.234 25.58C274.114 25.58 275.824 25.93 277.364 26.63C278.904 27.33 280.124 28.42 281.024 29.9C281.944 31.38 282.404 33.32 282.404 35.72V47.96C282.404 49 282.514 49.9 282.734 50.66C282.974 51.42 283.424 52.07 284.084 52.61Z" fill="white"/>
</svg>
