<svg width="112" height="112" viewBox="0 0 112 112" fill="none" xmlns="http://www.w3.org/2000/svg">
<path d="M50.7281 7.32812C49.6125 7.67812 47.95 9.03437 47.2719 10.1281C47.0312 10.5219 46.1781 13.2125 45.3687 16.0781C44.5594 18.9656 43.8812 21.35 43.8594 21.3937C43.8156 21.4375 38.15 22.4875 31.2594 23.7562C17.7406 26.2281 17.675 26.2281 16.2312 27.8906C15.1594 29.0937 14.8094 29.9469 14.7219 31.6094C14.6344 32.9 15.3781 37.3406 19.6875 60.9C22.575 76.8469 24.9156 89.075 25.1344 89.5781C25.9656 91.4594 28 92.9031 30.0781 93.1219L31.2375 93.2531L31.325 96.4469C31.4125 99.0937 31.5 99.8156 31.8719 100.669C32.5281 102.112 34.1469 103.753 35.5031 104.366L36.6406 104.891H55.8906H75.1406L76.5187 104.147C78.9687 102.812 80.0625 100.975 80.2375 97.8687L80.3469 95.8781L82.2062 95.5062C89.4031 94.0844 95.1781 88.5062 96.9062 81.3312C97.4531 79.0781 97.4969 75.4906 96.9937 73.1062C95.7687 67.1344 91.35 61.8187 85.75 59.5656C84.3281 58.9969 84.2187 58.9094 84.35 58.4062C84.4156 58.1 86.5812 50.3344 89.1625 41.1469C94.2594 22.9687 94.325 22.6187 93.4281 20.65C92.8594 19.4031 91.5906 18.0469 90.4969 17.5219C88.9875 16.8 54.5125 7.19687 53.0469 7.08749C52.2375 7.04374 51.3406 7.13124 50.7281 7.32812ZM69.1687 15.0062C77.9844 17.4781 85.9469 19.6875 86.8437 19.95C87.7406 20.1906 88.7469 20.5406 89.0531 20.7156C89.8406 21.175 90.3437 22.1156 90.3437 23.1219C90.3437 24.1719 80.8719 58.0344 80.5437 58.1437C80.3687 58.1875 80.2812 55.8031 80.2375 50.05C80.1719 42.0656 80.15 41.8687 79.6687 40.7969C79.0125 39.375 77.4375 37.7781 76.0375 37.1437C75.0094 36.6844 74.5719 36.6406 69.9562 36.575C67.2 36.5312 64.9687 36.4875 64.9687 36.4437C64.9687 36.0937 62.7375 24.2594 62.5406 23.6469C62.125 22.2687 60.8344 20.7594 59.4781 20.0594C57.6625 19.1187 56.5031 19.1187 51.8437 19.9937C49.6125 20.4094 47.775 20.7375 47.7531 20.6937C47.6437 20.5844 50.1375 12.1187 50.4 11.7031C50.7719 11.1562 51.9531 10.5219 52.6531 10.5C52.9156 10.5 60.3531 12.5344 69.1687 15.0062ZM57.9031 23.1875C58.2969 23.4062 58.7562 23.8219 58.9312 24.1062C59.1062 24.3906 59.7187 27.125 60.2656 30.1875C60.8125 33.25 61.3156 35.9406 61.3812 36.1375C61.4906 36.4875 60.6812 36.5094 49.0656 36.575L36.6406 36.6406L35.3937 37.2531C33.9062 37.9969 32.3531 39.6156 31.7844 41.0812C31.4125 42.0437 31.3906 43.4 31.325 65.8875L31.2812 89.6875H30.6687C29.8156 89.6875 28.6781 88.9219 28.35 88.0906C27.9781 87.1937 18.1562 33.2062 18.1562 32.0906C18.1562 31.0844 18.6594 30.1656 19.4687 29.6844C19.7969 29.4875 27.1469 28.0437 37.1 26.25C46.4625 24.5437 54.5344 23.0781 55.0156 22.9687C56.4594 22.6844 57.1594 22.7281 57.9031 23.1875ZM74.8125 40.5125C75.4687 40.8406 75.9719 41.3219 76.2781 41.8906C76.7594 42.7437 76.7812 42.8969 76.7812 50.4437V58.1437L75.3156 58.4062C67.9437 59.675 61.9062 65.3625 60.1562 72.625C59.5656 75.1625 59.5656 78.8375 60.1562 81.375C61.9062 88.6375 67.9437 94.325 75.3375 95.5937L76.825 95.8562L76.7375 97.5844C76.6719 99.4 76.3656 100.034 75.1625 100.931C74.5719 101.391 74.3531 101.391 56.0875 101.456C38.0406 101.5 37.6031 101.5 36.7719 101.062C36.3125 100.844 35.6781 100.275 35.4156 99.8156L34.8906 98.9844V70.7656V42.5469L35.3937 41.7375C35.6781 41.3 36.2906 40.7531 36.8156 40.4906C37.7344 40.0312 37.9094 40.0312 55.7812 40.0312H73.85L74.8125 40.5125ZM82.775 62.2344C88.1562 63.7219 92.0937 67.8125 93.4062 73.3031C95.3969 81.5937 90.4969 89.7969 82.3375 91.875C74.1781 93.975 65.7344 88.9656 63.6562 80.8062C62.4969 76.3437 63.6562 70.8969 66.4781 67.375C68.8625 64.4219 71.8812 62.6719 76.125 61.8187C77.175 61.6219 81.5062 61.8844 82.775 62.2344Z" fill="#0F67B1"/>
<path d="M40.6219 45.7625C39.5062 46.6156 39.8781 48.3656 41.2781 48.7813C41.8687 48.9563 46.375 49 56.3937 48.9563L70.7 48.8906L71.225 48.2781C71.8594 47.5344 71.9031 46.8344 71.2906 46.0688L70.8531 45.5H55.9125C44.3187 45.5 40.9062 45.5656 40.6219 45.7625Z" fill="#0F67B1"/>
<path d="M40.4688 56.875C39.8125 57.5313 39.8125 58.6906 40.4906 59.3906C40.9063 59.8063 41.2562 59.8281 51.6906 59.8938C57.5969 59.9156 62.6719 59.8938 62.9563 59.8281C64.2906 59.5 64.7719 57.8156 63.8094 56.9188C63.3063 56.4375 63.3062 56.4375 52.1062 56.4375C41.1906 56.4375 40.8844 56.4594 40.4688 56.875Z" fill="#0F67B1"/>
<path d="M40.4688 67.8125C39.8125 68.4688 39.8125 69.6281 40.4906 70.3281C40.8844 70.7438 41.2562 70.7656 45.85 70.8313C51.2531 70.8969 51.625 70.8313 52.0844 69.6281C52.3469 68.9281 51.9969 67.9 51.3844 67.5938C51.1656 67.4625 48.7594 67.375 45.9594 67.375C41.1906 67.375 40.8844 67.3969 40.4688 67.8125Z" fill="#0F67B1"/>
<path d="M40.4687 78.8594C39.7687 79.6031 39.8125 80.675 40.5781 81.3094C41.125 81.7906 41.2781 81.8125 46.0687 81.8125H51.0125L51.6469 81.1781C51.9969 80.8281 52.2812 80.3688 52.2812 80.1719C52.2812 79.6469 51.6906 78.5969 51.2969 78.4438C51.1 78.3781 48.6937 78.3125 45.9594 78.3125H40.9719L40.4687 78.8594Z" fill="#0F67B1"/>
<path d="M40.4687 89.7969C39.7469 90.5625 39.7906 91.5688 40.5562 92.2469L41.1469 92.75H48.5844C56.175 92.75 56.6344 92.7063 57.2469 91.8969C57.6844 91.3281 57.575 90.3656 56.9844 89.7969L56.4594 89.25H48.7156H40.9719L40.4687 89.7969Z" fill="#0F67B1"/>
<path d="M77.9625 63.875C77.1531 64.2031 76.7812 64.9688 76.7812 66.325C76.7812 67.5281 76.7594 67.5938 76.0812 67.9438C72.5594 69.7156 71.8156 74.2438 74.55 76.9781C75.6219 78.05 77.1312 78.75 78.3344 78.75C80.4125 78.75 81.5062 81.0688 80.0844 82.4906C79.5812 82.9938 79.2531 83.125 78.5312 83.125C77.3937 83.125 76.3437 82.2063 76.3437 81.2219C76.3437 79.3406 73.9156 78.575 73.0625 80.1719C72.7125 80.8063 72.8656 82.3156 73.3687 83.3875C73.85 84.3719 75.075 85.6188 76.0375 86.0781C76.7594 86.4063 76.7812 86.4719 76.7812 87.7188C76.7812 88.7469 76.8906 89.1188 77.2844 89.5563C78.0719 90.4531 78.8375 90.4969 79.625 89.7313C80.2156 89.1406 80.2812 88.9219 80.2812 87.7406C80.2812 86.4719 80.3031 86.4063 81.0031 86.0563C83.5406 84.7656 84.7656 81.8563 83.8906 79.1656C83.1687 77.0219 80.7844 75.25 78.575 75.25C78.0281 75.25 77.6344 75.0531 77.0875 74.5063C76.2562 73.675 76.1469 72.975 76.6719 71.9688C77.0875 71.1594 77.6125 70.875 78.6406 70.875C79.6687 70.875 80.7187 71.8594 80.7187 72.8C80.7187 74.2 82.1406 75.1188 83.3437 74.4844C85.2906 73.4781 83.8031 69.2344 81.025 67.9219C80.3031 67.5938 80.2812 67.5281 80.2812 66.2813C80.2812 65.2531 80.1719 64.8813 79.8 64.4438C79.2094 63.8094 78.5969 63.6125 77.9625 63.875Z" fill="#0F67B1"/>
</svg>
