<svg width="430" height="84" viewBox="0 0 430 84" fill="none" xmlns="http://www.w3.org/2000/svg">
<path d="M25.3641 17.6641C24.8063 17.8391 23.975 18.5172 23.6359 19.0641C23.5156 19.2609 23.0891 20.6062 22.6844 22.0391C22.2797 23.4828 21.9406 24.675 21.9297 24.6969C21.9078 24.7187 19.075 25.2437 15.6297 25.8781C8.87032 27.1141 8.83751 27.1141 8.11563 27.9453C7.57969 28.5469 7.40469 28.9734 7.36094 29.8047C7.31719 30.45 7.68907 32.6703 9.84376 44.45C11.2875 52.4234 12.4578 58.5375 12.5672 58.7891C12.9828 59.7297 14 60.4516 15.0391 60.5609L15.6188 60.6266L15.6625 62.2234C15.7063 63.5469 15.75 63.9078 15.9359 64.3344C16.2641 65.0562 17.0734 65.8766 17.7516 66.1828L18.3203 66.4453H27.9453H37.5703L38.2594 66.0734C39.4844 65.4062 40.0313 64.4875 40.1188 62.9344L40.1734 61.9391L41.1031 61.7531C44.7016 61.0422 47.5891 58.2531 48.4531 54.6656C48.7266 53.5391 48.7484 51.7453 48.4969 50.5531C47.8844 47.5672 45.675 44.9094 42.875 43.7828C42.1641 43.4984 42.1094 43.4547 42.175 43.2031C42.2078 43.05 43.2906 39.1672 44.5813 34.5734C47.1297 25.4844 47.1625 25.3094 46.7141 24.325C46.4297 23.7016 45.7953 23.0234 45.2484 22.7609C44.4938 22.4 27.2563 17.5984 26.5234 17.5437C26.1188 17.5219 25.6703 17.5656 25.3641 17.6641ZM34.5844 21.5031C38.9922 22.7391 42.9734 23.8437 43.4219 23.975C43.8703 24.0953 44.3734 24.2703 44.5266 24.3578C44.9203 24.5875 45.1719 25.0578 45.1719 25.5609C45.1719 26.0859 40.4359 43.0172 40.2719 43.0719C40.1844 43.0937 40.1406 41.9016 40.1188 39.025C40.0859 35.0328 40.075 34.9344 39.8344 34.3984C39.5063 33.6875 38.7188 32.8891 38.0188 32.5719C37.5047 32.3422 37.2859 32.3203 34.9781 32.2875C33.6 32.2656 32.4844 32.2437 32.4844 32.2219C32.4844 32.0469 31.3688 26.1297 31.2703 25.8234C31.0625 25.1344 30.4172 24.3797 29.7391 24.0297C28.8313 23.5594 28.2516 23.5594 25.9219 23.9969C24.8063 24.2047 23.8875 24.3687 23.8766 24.3469C23.8219 24.2922 25.0688 20.0594 25.2 19.8516C25.3859 19.5781 25.9766 19.2609 26.3266 19.25C26.4578 19.25 30.1766 20.2672 34.5844 21.5031ZM28.9516 25.5937C29.1484 25.7031 29.3781 25.9109 29.4656 26.0531C29.5531 26.1953 29.8594 27.5625 30.1328 29.0937C30.4063 30.625 30.6578 31.9703 30.6906 32.0687C30.7453 32.2437 30.3406 32.2547 24.5328 32.2875L18.3203 32.3203L17.6969 32.6266C16.9531 32.9984 16.1766 33.8078 15.8922 34.5406C15.7063 35.0219 15.6953 35.7 15.6625 46.9437L15.6406 58.8437H15.3344C14.9078 58.8437 14.3391 58.4609 14.175 58.0453C13.9891 57.5969 9.07813 30.6031 9.07813 30.0453C9.07813 29.5422 9.32969 29.0828 9.73438 28.8422C9.89844 28.7437 13.5734 28.0219 18.55 27.125C23.2313 26.2719 27.2672 25.5391 27.5078 25.4844C28.2297 25.3422 28.5797 25.3641 28.9516 25.5937ZM37.4063 34.2562C37.7344 34.4203 37.9859 34.6609 38.1391 34.9453C38.3797 35.3719 38.3906 35.4484 38.3906 39.2219V43.0719L37.6578 43.2031C33.9719 43.8375 30.9531 46.6812 30.0781 50.3125C29.7828 51.5812 29.7828 53.4187 30.0781 54.6875C30.9531 58.3187 33.9719 61.1625 37.6688 61.7969L38.4125 61.9281L38.3688 62.7922C38.3359 63.7 38.1828 64.0172 37.5813 64.4656C37.2859 64.6953 37.1766 64.6953 28.0438 64.7281C19.0203 64.75 18.8016 64.75 18.3859 64.5312C18.1563 64.4219 17.8391 64.1375 17.7078 63.9078L17.4453 63.4922V49.3828V35.2734L17.6969 34.8687C17.8391 34.65 18.1453 34.3766 18.4078 34.2453C18.8672 34.0156 18.9547 34.0156 27.8906 34.0156H36.925L37.4063 34.2562ZM41.3875 45.1172C44.0781 45.8609 46.0469 47.9062 46.7031 50.6516C47.6984 54.7969 45.2484 58.8984 41.1688 59.9375C37.0891 60.9875 32.8672 58.4828 31.8281 54.4031C31.2484 52.1719 31.8281 49.4484 33.2391 47.6875C34.4313 46.2109 35.9406 45.3359 38.0625 44.9094C38.5875 44.8109 40.7531 44.9422 41.3875 45.1172Z" fill="#0F67B1"/>
<path d="M20.3109 36.8813C19.7531 37.3078 19.9391 38.1828 20.6391 38.3906C20.9344 38.4781 23.1875 38.5 28.1969 38.4781L35.35 38.4453L35.6125 38.1391C35.9297 37.7672 35.9516 37.4172 35.6453 37.0344L35.4266 36.75H27.9563C22.1594 36.75 20.4531 36.7828 20.3109 36.8813Z" fill="#0F67B1"/>
<path d="M20.2344 42.4375C19.9063 42.7656 19.9063 43.3453 20.2453 43.6953C20.4531 43.9031 20.6281 43.9141 25.8453 43.9469C28.7984 43.9578 31.3359 43.9469 31.4781 43.9141C32.1453 43.75 32.3859 42.9078 31.9047 42.4594C31.6531 42.2187 31.6531 42.2187 26.0531 42.2187C20.5953 42.2187 20.4422 42.2297 20.2344 42.4375Z" fill="#0F67B1"/>
<path d="M20.2344 47.9063C19.9063 48.2344 19.9063 48.8141 20.2453 49.1641C20.4422 49.3719 20.6281 49.3828 22.925 49.4156C25.6266 49.4484 25.8125 49.4156 26.0422 48.8141C26.1734 48.4641 25.9984 47.95 25.6922 47.7969C25.5828 47.7313 24.3797 47.6875 22.9797 47.6875C20.5953 47.6875 20.4422 47.6984 20.2344 47.9063Z" fill="#0F67B1"/>
<path d="M20.2344 53.4297C19.8844 53.8016 19.9063 54.3375 20.2891 54.6547C20.5625 54.8953 20.6391 54.9062 23.0344 54.9062H25.5063L25.8234 54.5891C25.9984 54.4141 26.1406 54.1844 26.1406 54.0859C26.1406 53.8234 25.8453 53.2984 25.6484 53.2219C25.55 53.1891 24.3469 53.1563 22.9797 53.1563H20.4859L20.2344 53.4297Z" fill="#0F67B1"/>
<path d="M20.2344 58.8984C19.8734 59.2813 19.8953 59.7844 20.2781 60.1234L20.5734 60.375H24.2922C28.0875 60.375 28.3172 60.3531 28.6234 59.9484C28.8422 59.6641 28.7875 59.1828 28.4922 58.8984L28.2297 58.625H24.3578H20.4859L20.2344 58.8984Z" fill="#0F67B1"/>
<path d="M38.9813 45.9375C38.5766 46.1016 38.3906 46.4844 38.3906 47.1625C38.3906 47.7641 38.3797 47.7969 38.0406 47.9719C36.2797 48.8578 35.9078 51.1219 37.275 52.4891C37.8109 53.025 38.5656 53.375 39.1672 53.375C40.2063 53.375 40.7531 54.5344 40.0422 55.2453C39.7906 55.4969 39.6266 55.5625 39.2656 55.5625C38.6969 55.5625 38.1719 55.1031 38.1719 54.6109C38.1719 53.6703 36.9578 53.2875 36.5313 54.0859C36.3563 54.4031 36.4328 55.1578 36.6844 55.6938C36.925 56.1859 37.5375 56.8094 38.0188 57.0391C38.3797 57.2031 38.3906 57.2359 38.3906 57.8594C38.3906 58.3734 38.4453 58.5594 38.6422 58.7781C39.0359 59.2266 39.4188 59.2484 39.8125 58.8656C40.1078 58.5703 40.1406 58.4609 40.1406 57.8703C40.1406 57.2359 40.1516 57.2031 40.5016 57.0281C41.7703 56.3828 42.3828 54.9281 41.9453 53.5828C41.5844 52.5109 40.3922 51.625 39.2875 51.625C39.0141 51.625 38.8172 51.5266 38.5438 51.2531C38.1281 50.8375 38.0734 50.4875 38.3359 49.9844C38.5438 49.5797 38.8063 49.4375 39.3203 49.4375C39.8344 49.4375 40.3594 49.9297 40.3594 50.4C40.3594 51.1 41.0703 51.5594 41.6719 51.2422C42.6453 50.7391 41.9016 48.6172 40.5125 47.9609C40.1516 47.7969 40.1406 47.7641 40.1406 47.1406C40.1406 46.6266 40.0859 46.4406 39.9 46.2219C39.6047 45.9047 39.2984 45.8063 38.9813 45.9375Z" fill="#0F67B1"/>
<path d="M63.88 65V23H85.78V30.2H72.1V40.7H83.98V47.66H72.1V65H63.88ZM88.9511 65V34.34H96.8711V65H88.9511ZM88.9511 23H96.8711V31.1H88.9511V23ZM115.338 34.34H121.698C123.458 36.58 124.658 38.82 125.298 41.06C125.938 43.3 126.258 46.1 126.258 49.46V65H118.278V48.86C118.278 45.06 117.758 42.32 116.718 40.64H109.998V65H102.018V34.34H108.257L109.338 36.5C110.218 35.7 111.038 35.14 111.798 34.82C112.598 34.5 113.778 34.34 115.338 34.34ZM145.657 51.14H139.237C138.397 52.18 137.977 53.48 137.977 55.04C137.977 56.6 138.417 57.82 139.297 58.7H145.657V51.14ZM132.757 34.34H147.637C150.037 35.78 151.617 37.44 152.377 39.32C153.137 41.16 153.517 43.68 153.517 46.88V55.88C153.517 59.2 153.597 62.24 153.757 65H146.917L145.837 62.84C144.277 64.28 142.077 65 139.237 65H135.457C132.057 62.76 130.357 59.54 130.357 55.34C130.357 51.1 132.097 47.76 135.577 45.32H141.217C142.777 45.32 144.237 45.8 145.597 46.76V43.76C145.597 42.2 144.917 41.16 143.557 40.64H132.757V34.34ZM171.998 34.34H178.358C180.118 36.58 181.318 38.82 181.958 41.06C182.598 43.3 182.918 46.1 182.918 49.46V65H174.938V48.86C174.938 45.06 174.418 42.32 173.378 40.64H166.658V65H158.678V34.34H164.918L165.998 36.5C166.878 35.7 167.698 35.14 168.458 34.82C169.258 34.5 170.438 34.34 171.998 34.34ZM195.297 49.4C195.297 51.08 195.557 52.8 196.077 54.56C196.597 56.28 197.317 57.66 198.237 58.7H207.237V65H194.097C189.377 61.24 187.017 56.04 187.017 49.4C187.017 42.76 189.537 37.74 194.577 34.34H207.237V40.64H198.237C196.277 42.68 195.297 45.6 195.297 49.4ZM211.236 65V34.34H219.156V65H211.236ZM211.236 23H219.156V31.1H211.236V23ZM238.763 51.14H232.343C231.503 52.18 231.083 53.48 231.083 55.04C231.083 56.6 231.523 57.82 232.403 58.7H238.763V51.14ZM225.863 34.34H240.743C243.143 35.78 244.723 37.44 245.483 39.32C246.243 41.16 246.623 43.68 246.623 46.88V55.88C246.623 59.2 246.703 62.24 246.863 65H240.023L238.943 62.84C237.383 64.28 235.183 65 232.343 65H228.563C225.163 62.76 223.463 59.54 223.463 55.34C223.463 51.1 225.203 47.76 228.683 45.32H234.323C235.883 45.32 237.343 45.8 238.703 46.76V43.76C238.703 42.2 238.023 41.16 236.663 40.64H225.863V34.34ZM259.703 23V65H251.783V23H259.703ZM278.599 23H292.999V30.2H281.479L281.299 30.56L290.899 48.08C292.859 51.6 293.839 54.28 293.839 56.12C293.839 60.16 292.499 63.12 289.819 65H273.919V58.04H286.339L286.519 57.68L275.719 38.3C274.159 35.5 273.379 33.22 273.379 31.46C273.379 27.3 275.119 24.48 278.599 23ZM297.072 48.14V34.34H305.052V48.2C305.052 51.68 305.752 54.58 307.152 56.9H310.692C312.012 54.62 312.672 51.72 312.672 48.2V34.34H320.652V47.72C320.652 50.72 320.252 53.36 319.452 55.64C318.692 57.92 317.432 60.5 315.672 63.38L311.652 69.92C310.932 71.16 310.172 72.08 309.372 72.68C308.572 73.28 307.532 73.72 306.252 74H296.772V67.7H303.252C304.092 67.46 304.792 67.04 305.352 66.44C305.912 65.84 306.492 64.98 307.092 63.86L307.452 63.2H303.312C301.392 61.64 299.872 59.54 298.752 56.9C297.632 54.22 297.072 51.3 297.072 48.14ZM327.732 34.34H340.992V40.64H331.632L337.332 49.1C339.892 52.74 341.312 55.24 341.592 56.6C341.752 57.24 341.832 57.9 341.832 58.58C341.832 61.42 340.772 63.56 338.652 65H323.352V58.7H334.332L327.912 49.28C327.632 48.84 327.192 48.22 326.592 47.42C326.032 46.62 325.592 45.98 325.272 45.5C324.952 44.98 324.732 44.6 324.612 44.36C324.492 44.12 324.332 43.82 324.132 43.46C323.932 43.06 323.792 42.72 323.712 42.44C323.552 41.68 323.472 41.06 323.472 40.58C323.472 37.66 324.892 35.58 327.732 34.34ZM347.509 51.62V40.64H343.369V34.34H347.509V26H355.489V34.34H360.409V40.64H355.489V53.54C355.489 55.98 355.909 57.7 356.749 58.7H360.409V65H351.889C349.769 63.04 348.489 60.92 348.049 58.64C347.689 56.72 347.509 54.38 347.509 51.62ZM377.674 40.64H373.174C372.574 41.36 372.074 42.36 371.674 43.64C371.314 44.92 371.134 46.16 371.134 47.36H379.714C379.794 46.16 379.634 44.92 379.234 43.64C378.834 42.32 378.314 41.32 377.674 40.64ZM385.834 58.7V65H370.594C367.794 63.12 365.814 60.8 364.654 58.04C363.534 55.24 362.974 52.42 362.974 49.58C362.974 43.02 365.454 37.94 370.414 34.34H380.134C382.814 36.3 384.634 38.38 385.594 40.58C386.554 42.78 387.034 45 387.034 47.24C387.034 49.48 386.854 51.4 386.494 53H371.554C371.674 53.92 372.014 54.98 372.574 56.18C373.174 57.34 373.814 58.18 374.494 58.7H385.834ZM404.38 34.34H408.64L410.14 36.44C410.98 35.68 411.78 35.14 412.54 34.82C413.34 34.5 414.52 34.34 416.08 34.34H422.74C424.5 36.58 425.7 38.82 426.34 41.06C426.98 43.3 427.3 46.1 427.3 49.46V65H419.32V48.86C419.32 45.18 418.76 42.44 417.64 40.64H411.88C412.76 42.36 413.2 44.7 413.2 47.66V65H405.22V48.86C405.22 45.06 404.7 42.32 403.66 40.64H399.04V65H391.06V34.34H397.3L398.38 36.5C399.26 35.7 400.08 35.14 400.84 34.82C401.64 34.5 402.82 34.34 404.38 34.34Z" fill="black"/>
</svg>
